<svg width="281" height="56" viewBox="0 0 281 56" fill="none" xmlns="http://www.w3.org/2000/svg">
<path d="M57 28H55V30V36.6878L46.4104 29.4197C45.3271 28.503 43.9539 28 42.5348 28H29C27.8954 28 27 27.1046 27 26V4C27 2.89543 27.8954 2 29 2H61C62.1046 2 63 2.89543 63 4V26C63 27.1046 62.1046 28 61 28H57Z" stroke="black" stroke-width="4"/>
<path d="M18.5287 45.6435L8.76841 54.3591V45V44.5H8.26841H4C2.06701 44.5 0.5 42.933 0.5 41V19C0.5 17.067 2.067 15.5 4 15.5H36C37.933 15.5 39.5 17.067 39.5 19V41C39.5 42.933 37.933 44.5 36 44.5H21.526C20.4204 44.5 19.3534 44.907 18.5287 45.6435Z" fill="black" stroke="black"/>
<path d="M86.1548 23.6378C86.098 23.0649 85.8542 22.6198 85.4233 22.3026C84.9924 21.9853 84.4077 21.8267 83.669 21.8267C83.1671 21.8267 82.7434 21.8977 82.3977 22.0398C82.0521 22.1771 81.7869 22.3688 81.6023 22.6151C81.4223 22.8613 81.3324 23.1406 81.3324 23.4531C81.3229 23.7135 81.3774 23.9408 81.4957 24.1349C81.6188 24.3291 81.7869 24.4972 82 24.6392C82.2131 24.7765 82.4593 24.8973 82.7386 25.0014C83.018 25.1009 83.3163 25.1861 83.6335 25.2571L84.9403 25.5696C85.5748 25.7116 86.1572 25.901 86.6875 26.1378C87.2178 26.3745 87.6771 26.6657 88.0653 27.0114C88.4536 27.357 88.7543 27.7642 88.9673 28.233C89.1851 28.7017 89.2964 29.2391 89.3011 29.8452C89.2964 30.7353 89.0691 31.5071 88.6193 32.1605C88.1742 32.8092 87.5303 33.3134 86.6875 33.6733C85.8494 34.0284 84.8385 34.206 83.6548 34.206C82.4806 34.206 81.4579 34.026 80.5866 33.6662C79.7202 33.3063 79.0431 32.7737 78.5554 32.0682C78.0724 31.358 77.8191 30.4796 77.7955 29.4332H80.7713C80.8045 29.9209 80.9441 30.3281 81.1903 30.6548C81.4413 30.9768 81.7751 31.2206 82.1918 31.3864C82.6132 31.5473 83.089 31.6278 83.6193 31.6278C84.1402 31.6278 84.5923 31.5521 84.9759 31.4006C85.3641 31.2491 85.6648 31.0384 85.8778 30.7685C86.0909 30.4986 86.1974 30.1884 86.1974 29.8381C86.1974 29.5114 86.1004 29.2367 85.9062 29.0142C85.7169 28.7917 85.4375 28.6023 85.0682 28.446C84.7036 28.2898 84.2562 28.1477 83.7259 28.0199L82.142 27.6222C80.9157 27.3239 79.9474 26.8575 79.2372 26.223C78.527 25.5885 78.1742 24.7339 78.179 23.6591C78.1742 22.7784 78.4086 22.009 78.8821 21.3509C79.3603 20.6927 80.0161 20.179 80.8494 19.8097C81.6828 19.4403 82.6297 19.2557 83.6903 19.2557C84.7699 19.2557 85.7121 19.4403 86.517 19.8097C87.3267 20.179 87.9564 20.6927 88.4062 21.3509C88.8561 22.009 89.0881 22.7713 89.1023 23.6378H86.1548ZM107.136 26.7273C107.136 28.3134 106.835 29.6629 106.234 30.7756C105.638 31.8883 104.823 32.7382 103.791 33.3253C102.764 33.9077 101.608 34.1989 100.325 34.1989C99.0325 34.1989 97.8724 33.9053 96.845 33.3182C95.8175 32.7311 95.0055 31.8812 94.4089 30.7685C93.8123 29.6558 93.514 28.3087 93.514 26.7273C93.514 25.1411 93.8123 23.7917 94.4089 22.679C95.0055 21.5663 95.8175 20.7187 96.845 20.1364C97.8724 19.5492 99.0325 19.2557 100.325 19.2557C101.608 19.2557 102.764 19.5492 103.791 20.1364C104.823 20.7187 105.638 21.5663 106.234 22.679C106.835 23.7917 107.136 25.1411 107.136 26.7273ZM104.018 26.7273C104.018 25.6998 103.864 24.8333 103.557 24.1278C103.254 23.4223 102.825 22.8873 102.271 22.5227C101.717 22.1581 101.068 21.9759 100.325 21.9759C99.5817 21.9759 98.933 22.1581 98.379 22.5227C97.8251 22.8873 97.3942 23.4223 97.0864 24.1278C96.7834 24.8333 96.6319 25.6998 96.6319 26.7273C96.6319 27.7547 96.7834 28.6212 97.0864 29.3267C97.3942 30.0322 97.8251 30.5672 98.379 30.9318C98.933 31.2964 99.5817 31.4787 100.325 31.4787C101.068 31.4787 101.717 31.2964 102.271 30.9318C102.825 30.5672 103.254 30.0322 103.557 29.3267C103.864 28.6212 104.018 27.7547 104.018 26.7273ZM120.799 19.4545H123.874V28.9006C123.874 29.9612 123.621 30.8892 123.114 31.6847C122.612 32.4801 121.909 33.1004 121.005 33.5455C120.1 33.9858 119.047 34.206 117.844 34.206C116.637 34.206 115.581 33.9858 114.676 33.5455C113.772 33.1004 113.069 32.4801 112.567 31.6847C112.065 30.8892 111.814 29.9612 111.814 28.9006V19.4545H114.889V28.6378C114.889 29.1918 115.01 29.6842 115.252 30.1151C115.498 30.5459 115.844 30.8845 116.289 31.1307C116.734 31.3769 117.252 31.5 117.844 31.5C118.441 31.5 118.959 31.3769 119.399 31.1307C119.845 30.8845 120.188 30.5459 120.429 30.1151C120.675 29.6842 120.799 29.1918 120.799 28.6378V19.4545ZM140.97 19.4545V34H138.314L131.986 24.8452H131.879V34H128.804V19.4545H131.503L137.781 28.6023H137.909V19.4545H140.97ZM151.067 34H145.911V19.4545H151.11C152.573 19.4545 153.832 19.7457 154.888 20.3281C155.944 20.9058 156.756 21.7367 157.324 22.821C157.897 23.9053 158.184 25.2027 158.184 26.7131C158.184 28.2282 157.897 29.5303 157.324 30.6193C156.756 31.7083 155.939 32.544 154.874 33.1264C153.814 33.7088 152.545 34 151.067 34ZM148.986 31.3651H150.939C151.849 31.3651 152.613 31.2041 153.234 30.8821C153.859 30.5554 154.327 30.0511 154.64 29.3693C154.957 28.6828 155.116 27.7973 155.116 26.7131C155.116 25.6383 154.957 24.7599 154.64 24.0781C154.327 23.3963 153.861 22.8944 153.241 22.5724C152.62 22.2505 151.856 22.0895 150.947 22.0895H148.986V31.3651ZM169.891 34V19.4545H179.692V21.9901H172.966V25.456H179.188V27.9915H172.966V31.4645H179.72V34H169.891ZM196.703 19.4545V34H194.047L187.719 24.8452H187.612V34H184.537V19.4545H187.236L193.514 28.6023H193.642V19.4545H196.703ZM211.289 24.1562C211.189 23.8106 211.05 23.5052 210.87 23.2401C210.69 22.9702 210.47 22.7429 210.209 22.5582C209.954 22.3688 209.66 22.2244 209.329 22.125C209.002 22.0256 208.64 21.9759 208.242 21.9759C207.499 21.9759 206.845 22.1605 206.282 22.5298C205.723 22.8991 205.287 23.4366 204.975 24.142C204.662 24.8428 204.506 25.6998 204.506 26.7131C204.506 27.7263 204.66 28.5881 204.968 29.2983C205.276 30.0085 205.711 30.5507 206.275 30.9247C206.838 31.294 207.503 31.4787 208.27 31.4787C208.966 31.4787 209.561 31.3556 210.053 31.1094C210.55 30.8584 210.929 30.5057 211.189 30.0511C211.454 29.5966 211.587 29.0592 211.587 28.4389L212.212 28.5312H208.462V26.2159H214.549V28.0483C214.549 29.3267 214.279 30.4252 213.739 31.3438C213.199 32.2576 212.456 32.9631 211.509 33.4602C210.562 33.9527 209.478 34.1989 208.256 34.1989C206.892 34.1989 205.695 33.8982 204.662 33.2969C203.63 32.6908 202.825 31.8314 202.248 30.7188C201.675 29.6013 201.388 28.2756 201.388 26.7415C201.388 25.5625 201.559 24.5114 201.9 23.5881C202.245 22.66 202.728 21.8741 203.348 21.2301C203.969 20.5862 204.691 20.0961 205.515 19.7599C206.338 19.4238 207.231 19.2557 208.192 19.2557C209.016 19.2557 209.783 19.3764 210.493 19.6179C211.204 19.8546 211.833 20.1908 212.383 20.6264C212.937 21.062 213.389 21.5805 213.739 22.1818C214.089 22.7784 214.314 23.4366 214.414 24.1562H211.289ZM219.259 34V19.4545H222.334V31.4645H228.57V34H219.259ZM236.082 19.4545V34H233.006V19.4545H236.082ZM248.902 23.6378C248.846 23.0649 248.602 22.6198 248.171 22.3026C247.74 21.9853 247.155 21.8267 246.417 21.8267C245.915 21.8267 245.491 21.8977 245.145 22.0398C244.8 22.1771 244.535 22.3688 244.35 22.6151C244.17 22.8613 244.08 23.1406 244.08 23.4531C244.071 23.7135 244.125 23.9408 244.243 24.1349C244.366 24.3291 244.535 24.4972 244.748 24.6392C244.961 24.7765 245.207 24.8973 245.486 25.0014C245.766 25.1009 246.064 25.1861 246.381 25.2571L247.688 25.5696C248.322 25.7116 248.905 25.901 249.435 26.1378C249.965 26.3745 250.425 26.6657 250.813 27.0114C251.201 27.357 251.502 27.7642 251.715 28.233C251.933 28.7017 252.044 29.2391 252.049 29.8452C252.044 30.7353 251.817 31.5071 251.367 32.1605C250.922 32.8092 250.278 33.3134 249.435 33.6733C248.597 34.0284 247.586 34.206 246.402 34.206C245.228 34.206 244.206 34.026 243.334 33.6662C242.468 33.3063 241.791 32.7737 241.303 32.0682C240.82 31.358 240.567 30.4796 240.543 29.4332H243.519C243.552 29.9209 243.692 30.3281 243.938 30.6548C244.189 30.9768 244.523 31.2206 244.939 31.3864C245.361 31.5473 245.837 31.6278 246.367 31.6278C246.888 31.6278 247.34 31.5521 247.724 31.4006C248.112 31.2491 248.412 31.0384 248.625 30.7685C248.839 30.4986 248.945 30.1884 248.945 29.8381C248.945 29.5114 248.848 29.2367 248.654 29.0142C248.465 28.7917 248.185 28.6023 247.816 28.446C247.451 28.2898 247.004 28.1477 246.474 28.0199L244.89 27.6222C243.663 27.3239 242.695 26.8575 241.985 26.223C241.275 25.5885 240.922 24.7339 240.927 23.6591C240.922 22.7784 241.156 22.009 241.63 21.3509C242.108 20.6927 242.764 20.179 243.597 19.8097C244.43 19.4403 245.377 19.2557 246.438 19.2557C247.518 19.2557 248.46 19.4403 249.265 19.8097C250.074 20.179 250.704 20.6927 251.154 21.3509C251.604 22.009 251.836 22.7713 251.85 23.6378H248.902ZM256.517 34V19.4545H259.593V25.456H265.836V19.4545H268.904V34H265.836V27.9915H259.593V34H256.517Z" fill="black"/>
</svg>
