<svg width="204" height="114" viewBox="0 0 204 114" fill="none" xmlns="http://www.w3.org/2000/svg">
<path d="M127 28H125V30V36.6878L116.41 29.4197C115.327 28.503 113.954 28 112.535 28H99C97.8954 28 97 27.1046 97 26V4C97 2.89543 97.8954 2 99 2H131C132.105 2 133 2.89543 133 4V26C133 27.1046 132.105 28 131 28H127Z" stroke="#DBAA6F" stroke-width="4"/>
<path d="M88.5287 45.6435L78.7684 54.3591V45V44.5H78.2684H74C72.067 44.5 70.5 42.933 70.5 41V19C70.5 17.067 72.067 15.5 74 15.5H106C107.933 15.5 109.5 17.067 109.5 19V41C109.5 42.933 107.933 44.5 106 44.5H91.526C90.4204 44.5 89.3534 44.907 88.5287 45.6435Z" fill="#31928F" stroke="#31928F"/>
<path d="M14.5673 74.6378C14.5105 74.0649 14.2667 73.6198 13.8358 73.3026C13.4049 72.9853 12.8202 72.8267 12.0815 72.8267C11.5796 72.8267 11.1559 72.8977 10.8102 73.0398C10.4646 73.1771 10.1994 73.3688 10.0148 73.6151C9.83485 73.8613 9.74489 74.1406 9.74489 74.4531C9.73542 74.7135 9.78987 74.9408 9.90824 75.1349C10.0313 75.3291 10.1994 75.4972 10.4125 75.6392C10.6256 75.7765 10.8718 75.8973 11.1511 76.0014C11.4305 76.1009 11.7288 76.1861 12.046 76.2571L13.3528 76.5696C13.9873 76.7116 14.5697 76.901 15.1 77.1378C15.6303 77.3745 16.0896 77.6657 16.4778 78.0114C16.8661 78.357 17.1668 78.7642 17.3798 79.233C17.5976 79.7017 17.7089 80.2391 17.7136 80.8452C17.7089 81.7353 17.4816 82.5071 17.0318 83.1605C16.5867 83.8092 15.9428 84.3134 15.1 84.6733C14.2619 85.0284 13.251 85.206 12.0673 85.206C10.8931 85.206 9.87036 85.026 8.99915 84.6662C8.13267 84.3063 7.45559 83.7737 6.9679 83.0682C6.48494 82.358 6.23163 81.4796 6.20795 80.4332H9.18381C9.21695 80.9209 9.35663 81.3281 9.60284 81.6548C9.85379 81.9768 10.1876 82.2206 10.6043 82.3864C11.0257 82.5473 11.5015 82.6278 12.0318 82.6278C12.5526 82.6278 13.0048 82.5521 13.3884 82.4006C13.7766 82.2491 14.0773 82.0384 14.2903 81.7685C14.5034 81.4986 14.6099 81.1884 14.6099 80.8381C14.6099 80.5114 14.5129 80.2367 14.3187 80.0142C14.1294 79.7917 13.85 79.6023 13.4807 79.446C13.1161 79.2898 12.6687 79.1477 12.1384 79.0199L10.5545 78.6222C9.32822 78.3239 8.35994 77.8575 7.64971 77.223C6.93949 76.5885 6.58674 75.7339 6.59148 74.6591C6.58674 73.7784 6.82112 73.009 7.2946 72.3509C7.77282 71.6927 8.4286 71.179 9.26193 70.8097C10.0953 70.4403 11.0422 70.2557 12.1028 70.2557C13.1824 70.2557 14.1246 70.4403 14.9295 70.8097C15.7392 71.179 16.3689 71.6927 16.8187 72.3509C17.2686 73.009 17.5006 73.7713 17.5148 74.6378H14.5673ZM35.5486 77.7273C35.5486 79.3134 35.248 80.6629 34.6467 81.7756C34.0501 82.8883 33.2357 83.7382 32.2035 84.3253C31.176 84.9077 30.0207 85.1989 28.7376 85.1989C27.445 85.1989 26.2849 84.9053 25.2575 84.3182C24.23 83.7311 23.418 82.8812 22.8214 81.7685C22.2248 80.6558 21.9265 79.3087 21.9265 77.7273C21.9265 76.1411 22.2248 74.7917 22.8214 73.679C23.418 72.5663 24.23 71.7187 25.2575 71.1364C26.2849 70.5492 27.445 70.2557 28.7376 70.2557C30.0207 70.2557 31.176 70.5492 32.2035 71.1364C33.2357 71.7187 34.0501 72.5663 34.6467 73.679C35.248 74.7917 35.5486 76.1411 35.5486 77.7273ZM32.4308 77.7273C32.4308 76.6998 32.2769 75.8333 31.9691 75.1278C31.6661 74.4223 31.2376 73.8873 30.6836 73.5227C30.1296 73.1581 29.4809 72.9759 28.7376 72.9759C27.9942 72.9759 27.3455 73.1581 26.7915 73.5227C26.2376 73.8873 25.8067 74.4223 25.4989 75.1278C25.1959 75.8333 25.0444 76.6998 25.0444 77.7273C25.0444 78.7547 25.1959 79.6212 25.4989 80.3267C25.8067 81.0322 26.2376 81.5672 26.7915 81.9318C27.3455 82.2964 27.9942 82.4787 28.7376 82.4787C29.4809 82.4787 30.1296 82.2964 30.6836 81.9318C31.2376 81.5672 31.6661 81.0322 31.9691 80.3267C32.2769 79.6212 32.4308 78.7547 32.4308 77.7273ZM49.2111 70.4545H52.2864V79.9006C52.2864 80.9612 52.033 81.8892 51.5264 82.6847C51.0245 83.4801 50.3214 84.1004 49.417 84.5455C48.5127 84.9858 47.4592 85.206 46.2565 85.206C45.0491 85.206 43.9933 84.9858 43.0889 84.5455C42.1846 84.1004 41.4814 83.4801 40.9795 82.6847C40.4776 81.8892 40.2267 80.9612 40.2267 79.9006V70.4545H43.302V79.6378C43.302 80.1918 43.4227 80.6842 43.6642 81.1151C43.9104 81.5459 44.2561 81.8845 44.7011 82.1307C45.1462 82.3769 45.6647 82.5 46.2565 82.5C46.8531 82.5 47.3716 82.3769 47.8119 82.1307C48.257 81.8845 48.6003 81.5459 48.8418 81.1151C49.088 80.6842 49.2111 80.1918 49.2111 79.6378V70.4545ZM69.3827 70.4545V85H66.7265L60.3984 75.8452H60.2918V85H57.2165V70.4545H59.9154L66.1938 79.6023H66.3217V70.4545H69.3827ZM79.4798 85H74.3236V70.4545H79.5224C80.9855 70.4545 82.245 70.7457 83.3008 71.3281C84.3567 71.9058 85.1687 72.7367 85.7369 73.821C86.3098 74.9053 86.5963 76.2027 86.5963 77.7131C86.5963 79.2282 86.3098 80.5303 85.7369 81.6193C85.1687 82.7083 84.352 83.544 83.2866 84.1264C82.226 84.7088 80.9571 85 79.4798 85ZM77.3989 82.3651H79.352C80.2611 82.3651 81.0258 82.2041 81.646 81.8821C82.271 81.5554 82.7398 81.0511 83.0523 80.3693C83.3695 79.6828 83.5281 78.7973 83.5281 77.7131C83.5281 76.6383 83.3695 75.7599 83.0523 75.0781C82.7398 74.3963 82.2734 73.8944 81.6531 73.5724C81.0329 73.2505 80.2682 73.0895 79.3591 73.0895H77.3989V82.3651ZM98.3033 85V70.4545H108.104V72.9901H101.379V76.456H107.6V78.9915H101.379V82.4645H108.133V85H98.3033ZM125.116 70.4545V85H122.459L116.131 75.8452H116.025V85H112.949V70.4545H115.648L121.927 79.6023H122.054V70.4545H125.116ZM139.701 75.1562C139.602 74.8106 139.462 74.5052 139.282 74.2401C139.102 73.9702 138.882 73.7429 138.622 73.5582C138.366 73.3688 138.072 73.2244 137.741 73.125C137.414 73.0256 137.052 72.9759 136.654 72.9759C135.911 72.9759 135.258 73.1605 134.694 73.5298C134.135 73.8991 133.7 74.4366 133.387 75.142C133.075 75.8428 132.919 76.6998 132.919 77.7131C132.919 78.7263 133.072 79.5881 133.38 80.2983C133.688 81.0085 134.124 81.5507 134.687 81.9247C135.251 82.294 135.916 82.4787 136.683 82.4787C137.379 82.4787 137.973 82.3556 138.465 82.1094C138.963 81.8584 139.341 81.5057 139.602 81.0511C139.867 80.5966 140 80.0592 140 79.4389L140.625 79.5312H136.875V77.2159H142.961V79.0483C142.961 80.3267 142.691 81.4252 142.152 82.3438C141.612 83.2576 140.868 83.9631 139.921 84.4602C138.974 84.9527 137.89 85.1989 136.669 85.1989C135.305 85.1989 134.107 84.8982 133.075 84.2969C132.043 83.6908 131.238 82.8314 130.66 81.7188C130.087 80.6013 129.801 79.2756 129.801 77.7415C129.801 76.5625 129.971 75.5114 130.312 74.5881C130.658 73.66 131.141 72.8741 131.761 72.2301C132.381 71.5862 133.103 71.0961 133.927 70.7599C134.751 70.4238 135.644 70.2557 136.605 70.2557C137.429 70.2557 138.196 70.3764 138.906 70.6179C139.616 70.8546 140.246 71.1908 140.795 71.6264C141.349 72.062 141.801 72.5805 142.152 73.1818C142.502 73.7784 142.727 74.4366 142.826 75.1562H139.701ZM147.671 85V70.4545H150.747V82.4645H156.982V85H147.671ZM164.494 70.4545V85H161.419V70.4545H164.494ZM177.315 74.6378C177.258 74.0649 177.014 73.6198 176.583 73.3026C176.153 72.9853 175.568 72.8267 174.829 72.8267C174.327 72.8267 173.904 72.8977 173.558 73.0398C173.212 73.1771 172.947 73.3688 172.762 73.6151C172.583 73.8613 172.493 74.1406 172.493 74.4531C172.483 74.7135 172.538 74.9408 172.656 75.1349C172.779 75.3291 172.947 75.4972 173.16 75.6392C173.373 75.7765 173.619 75.8973 173.899 76.0014C174.178 76.1009 174.476 76.1861 174.794 76.2571L176.1 76.5696C176.735 76.7116 177.317 76.901 177.848 77.1378C178.378 77.3745 178.837 77.6657 179.225 78.0114C179.614 78.357 179.914 78.7642 180.127 79.233C180.345 79.7017 180.457 80.2391 180.461 80.8452C180.457 81.7353 180.229 82.5071 179.779 83.1605C179.334 83.8092 178.69 84.3134 177.848 84.6733C177.01 85.0284 175.999 85.206 174.815 85.206C173.641 85.206 172.618 85.026 171.747 84.6662C170.88 84.3063 170.203 83.7737 169.716 83.0682C169.233 82.358 168.979 81.4796 168.956 80.4332H171.931C171.965 80.9209 172.104 81.3281 172.35 81.6548C172.601 81.9768 172.935 82.2206 173.352 82.3864C173.773 82.5473 174.249 82.6278 174.779 82.6278C175.3 82.6278 175.752 82.5521 176.136 82.4006C176.524 82.2491 176.825 82.0384 177.038 81.7685C177.251 81.4986 177.358 81.1884 177.358 80.8381C177.358 80.5114 177.261 80.2367 177.066 80.0142C176.877 79.7917 176.598 79.6023 176.228 79.446C175.864 79.2898 175.416 79.1477 174.886 79.0199L173.302 78.6222C172.076 78.3239 171.108 77.8575 170.397 77.223C169.687 76.5885 169.334 75.7339 169.339 74.6591C169.334 73.7784 169.569 73.009 170.042 72.3509C170.52 71.6927 171.176 71.179 172.01 70.8097C172.843 70.4403 173.79 70.2557 174.85 70.2557C175.93 70.2557 176.872 70.4403 177.677 70.8097C178.487 71.179 179.117 71.6927 179.566 72.3509C180.016 73.009 180.248 73.7713 180.262 74.6378H177.315ZM184.93 85V70.4545H188.005V76.456H194.248V70.4545H197.316V85H194.248V78.9915H188.005V85H184.93Z" fill="black"/>
<path d="M28.2866 101C28.2397 100.604 28.0496 100.297 27.7163 100.078C27.383 99.8594 26.9741 99.75 26.4897 99.75C26.1356 99.75 25.8257 99.8073 25.5601 99.9219C25.297 100.036 25.0913 100.194 24.9429 100.395C24.797 100.595 24.7241 100.823 24.7241 101.078C24.7241 101.292 24.7749 101.475 24.8765 101.629C24.9806 101.78 25.1134 101.906 25.2749 102.008C25.4364 102.107 25.6056 102.189 25.7827 102.254C25.9598 102.316 26.1226 102.367 26.271 102.406L27.0835 102.625C27.2918 102.68 27.5236 102.755 27.7788 102.852C28.0366 102.948 28.2827 103.079 28.5171 103.246C28.7541 103.41 28.9494 103.621 29.103 103.879C29.2567 104.137 29.3335 104.453 29.3335 104.828C29.3335 105.26 29.2202 105.651 28.9937 106C28.7697 106.349 28.4416 106.626 28.0093 106.832C27.5796 107.038 27.0575 107.141 26.4429 107.141C25.87 107.141 25.3739 107.048 24.9546 106.863C24.5379 106.678 24.2098 106.421 23.9702 106.09C23.7332 105.759 23.5991 105.375 23.5679 104.938H24.5679C24.5939 105.24 24.6955 105.49 24.8726 105.687C25.0522 105.883 25.2788 106.029 25.5522 106.125C25.8283 106.219 26.1252 106.266 26.4429 106.266C26.8127 106.266 27.1447 106.206 27.439 106.086C27.7332 105.964 27.9663 105.794 28.1382 105.578C28.3101 105.359 28.396 105.104 28.396 104.812C28.396 104.547 28.3218 104.331 28.1733 104.164C28.0249 103.997 27.8296 103.862 27.5874 103.758C27.3452 103.654 27.0835 103.562 26.8022 103.484L25.8179 103.203C25.1929 103.023 24.6981 102.767 24.3335 102.434C23.9689 102.1 23.7866 101.664 23.7866 101.125C23.7866 100.677 23.9077 100.286 24.1499 99.9531C24.3947 99.6172 24.7228 99.3568 25.1343 99.1719C25.5483 98.9844 26.0106 98.8906 26.521 98.8906C27.0366 98.8906 27.495 98.9831 27.896 99.168C28.297 99.3503 28.6147 99.6003 28.8491 99.918C29.0861 100.236 29.2111 100.596 29.2241 101H28.2866ZM30.9263 107V99H33.6294C34.257 99 34.77 99.1133 35.1685 99.3398C35.5695 99.5638 35.8664 99.8672 36.0591 100.25C36.2518 100.633 36.3481 101.06 36.3481 101.531C36.3481 102.003 36.2518 102.431 36.0591 102.816C35.869 103.202 35.5747 103.509 35.1763 103.738C34.7778 103.965 34.2674 104.078 33.645 104.078H31.7075V103.219H33.6138C34.0435 103.219 34.3885 103.145 34.6489 102.996C34.9093 102.848 35.0981 102.647 35.2153 102.395C35.3351 102.139 35.395 101.852 35.395 101.531C35.395 101.211 35.3351 100.924 35.2153 100.672C35.0981 100.419 34.908 100.221 34.645 100.078C34.382 99.9323 34.033 99.8594 33.5981 99.8594H31.895V107H30.9263ZM37.9087 107V99H42.7368V99.8594H38.8774V102.562H42.4868V103.422H38.8774V106.141H42.7993V107H37.9087ZM44.811 107H43.7954L46.7329 99H47.7329L50.6704 107H49.6548L47.2642 100.266H47.2017L44.811 107ZM45.186 103.875H49.2798V104.734H45.186V103.875ZM51.9165 107V99H52.8853V102.969H52.979L56.5728 99H57.8384L54.479 102.609L57.8384 107H56.6665L53.8853 103.281L52.8853 104.406V107H51.9165ZM62.186 107V99H67.0142V99.8594H63.1548V102.562H66.7642V103.422H63.1548V106.141H67.0767V107H62.186ZM75.104 99V107H74.1665L69.8071 100.719H69.729V107H68.7603V99H69.6978L74.0728 105.297H74.1509V99H75.104ZM82.5112 101.5C82.4253 101.237 82.312 101.001 82.1714 100.793C82.0334 100.582 81.868 100.402 81.6753 100.254C81.4852 100.105 81.269 99.9922 81.0269 99.9141C80.7847 99.8359 80.519 99.7969 80.23 99.7969C79.756 99.7969 79.325 99.9193 78.937 100.164C78.549 100.409 78.2404 100.77 78.0112 101.246C77.7821 101.723 77.6675 102.307 77.6675 103C77.6675 103.693 77.7834 104.277 78.0151 104.754C78.2469 105.23 78.5607 105.591 78.9565 105.836C79.3524 106.081 79.7977 106.203 80.2925 106.203C80.7508 106.203 81.1545 106.105 81.5034 105.91C81.855 105.712 82.1284 105.434 82.3237 105.074C82.5216 104.712 82.6206 104.286 82.6206 103.797L82.9175 103.859H80.5112V103H83.5581V103.859C83.5581 104.518 83.4175 105.091 83.1362 105.578C82.8576 106.065 82.4722 106.443 81.98 106.711C81.4904 106.977 80.9279 107.109 80.2925 107.109C79.5841 107.109 78.9618 106.943 78.4253 106.609C77.8914 106.276 77.4748 105.802 77.1753 105.187C76.8784 104.573 76.73 103.844 76.73 103C76.73 102.367 76.8146 101.798 76.9839 101.293C77.1558 100.785 77.3979 100.353 77.7104 99.9961C78.0229 99.6393 78.3927 99.3659 78.8198 99.1758C79.2469 98.9857 79.717 98.8906 80.23 98.8906C80.6519 98.8906 81.0451 98.9544 81.4097 99.082C81.7769 99.207 82.1037 99.3854 82.3901 99.6172C82.6792 99.8464 82.9201 100.121 83.1128 100.441C83.3055 100.759 83.4383 101.112 83.5112 101.5H82.5112ZM85.2173 107V99H86.186V106.141H89.9048V107H85.2173ZM92.3735 99V107H91.4048V99H92.3735ZM98.6909 101C98.644 100.604 98.4539 100.297 98.1206 100.078C97.7873 99.8594 97.3784 99.75 96.894 99.75C96.5399 99.75 96.23 99.8073 95.9644 99.9219C95.7013 100.036 95.4956 100.194 95.3472 100.395C95.2013 100.595 95.1284 100.823 95.1284 101.078C95.1284 101.292 95.1792 101.475 95.2808 101.629C95.3849 101.78 95.5177 101.906 95.6792 102.008C95.8407 102.107 96.0099 102.189 96.187 102.254C96.3641 102.316 96.5269 102.367 96.6753 102.406L97.4878 102.625C97.6961 102.68 97.9279 102.755 98.1831 102.852C98.4409 102.948 98.687 103.079 98.9214 103.246C99.1584 103.41 99.3537 103.621 99.5073 103.879C99.661 104.137 99.7378 104.453 99.7378 104.828C99.7378 105.26 99.6245 105.651 99.3979 106C99.174 106.349 98.8459 106.626 98.4136 106.832C97.9839 107.038 97.4618 107.141 96.8472 107.141C96.2743 107.141 95.7782 107.048 95.3589 106.863C94.9422 106.678 94.6141 106.421 94.3745 106.09C94.1375 105.759 94.0034 105.375 93.9722 104.938H94.9722C94.9982 105.24 95.0998 105.49 95.2769 105.687C95.4565 105.883 95.6831 106.029 95.9565 106.125C96.2326 106.219 96.5295 106.266 96.8472 106.266C97.217 106.266 97.549 106.206 97.8433 106.086C98.1375 105.964 98.3706 105.794 98.5425 105.578C98.7144 105.359 98.8003 105.104 98.8003 104.812C98.8003 104.547 98.7261 104.331 98.5776 104.164C98.4292 103.997 98.2339 103.862 97.9917 103.758C97.7495 103.654 97.4878 103.562 97.2065 103.484L96.2222 103.203C95.5972 103.023 95.1024 102.767 94.7378 102.434C94.3732 102.1 94.1909 101.664 94.1909 101.125C94.1909 100.677 94.312 100.286 94.5542 99.9531C94.799 99.6172 95.1271 99.3568 95.5386 99.1719C95.9526 98.9844 96.4149 98.8906 96.9253 98.8906C97.4409 98.8906 97.8993 98.9831 98.3003 99.168C98.7013 99.3503 99.019 99.6003 99.2534 99.918C99.4904 100.236 99.6154 100.596 99.6284 101H98.6909ZM101.331 107V99H102.299V102.562H106.565V99H107.534V107H106.565V103.422H102.299V107H101.331ZM110.02 107.063C109.827 107.063 109.662 106.993 109.524 106.855C109.386 106.717 109.317 106.552 109.317 106.359C109.317 106.167 109.386 106.001 109.524 105.863C109.662 105.725 109.827 105.656 110.02 105.656C110.213 105.656 110.378 105.725 110.516 105.863C110.654 106.001 110.723 106.167 110.723 106.359C110.723 106.487 110.691 106.604 110.625 106.711C110.563 106.818 110.478 106.904 110.372 106.969C110.267 107.031 110.15 107.063 110.02 107.063ZM121.94 99V107H121.002L116.643 100.719H116.565V107H115.596V99H116.534L120.909 105.297H120.987V99H121.94ZM124.207 107H123.191L126.128 99H127.128L130.066 107H129.05L126.66 100.266H126.597L124.207 107ZM124.582 103.875H128.675V104.734H124.582V103.875ZM129.94 99.8594V99H135.94V99.8594H133.424V107H132.456V99.8594H129.94ZM142.685 99H143.654V104.297C143.654 104.844 143.525 105.332 143.267 105.762C143.012 106.189 142.651 106.526 142.185 106.773C141.719 107.018 141.172 107.141 140.544 107.141C139.917 107.141 139.37 107.018 138.904 106.773C138.438 106.526 138.076 106.189 137.818 105.762C137.563 105.332 137.435 104.844 137.435 104.297V99H138.404V104.219C138.404 104.609 138.49 104.957 138.662 105.262C138.833 105.564 139.078 105.802 139.396 105.977C139.716 106.148 140.099 106.234 140.544 106.234C140.99 106.234 141.373 106.148 141.693 105.977C142.013 105.802 142.258 105.564 142.427 105.262C142.599 104.957 142.685 104.609 142.685 104.219V99ZM145.588 107V99H148.292C148.917 99 149.43 99.1068 149.831 99.3203C150.232 99.5312 150.528 99.8216 150.721 100.191C150.914 100.561 151.01 100.982 151.01 101.453C151.01 101.924 150.914 102.342 150.721 102.707C150.528 103.072 150.233 103.358 149.834 103.566C149.436 103.772 148.927 103.875 148.307 103.875H146.12V103H148.276C148.703 103 149.047 102.937 149.307 102.812C149.57 102.687 149.76 102.51 149.877 102.281C149.997 102.049 150.057 101.773 150.057 101.453C150.057 101.133 149.997 100.853 149.877 100.613C149.758 100.374 149.566 100.189 149.303 100.059C149.04 99.9258 148.693 99.8594 148.26 99.8594H146.557V107H145.588ZM149.354 103.406L151.323 107H150.198L148.26 103.406H149.354ZM152.953 107H151.937L154.875 99H155.875L158.812 107H157.796L155.406 100.266H155.343L152.953 107ZM153.328 103.875H157.421V104.734H153.328V103.875ZM160.058 107V99H161.027V106.141H164.746V107H160.058ZM166.246 107V99H167.214V106.141H170.933V107H166.246ZM171.37 99H172.479L174.698 102.734H174.792L177.01 99H178.12L175.229 103.703V107H174.26V103.703L171.37 99ZM179.543 107.063C179.351 107.063 179.185 106.993 179.047 106.855C178.909 106.717 178.84 106.552 178.84 106.359C178.84 106.167 178.909 106.001 179.047 105.863C179.185 105.725 179.351 105.656 179.543 105.656C179.736 105.656 179.902 105.725 180.04 105.863C180.178 106.001 180.247 106.167 180.247 106.359C180.247 106.487 180.214 106.604 180.149 106.711C180.086 106.818 180.002 106.904 179.895 106.969C179.791 107.031 179.674 107.063 179.543 107.063Z" fill="#31928F"/>
</svg>
