<svg width="93" height="81" viewBox="0 0 93 81" fill="none" xmlns="http://www.w3.org/2000/svg">
<path d="M80.4207 42.4232H77.8438V45V55.9441L64.0263 44.2523C62.6305 43.0713 60.8612 42.4232 59.0328 42.4232H37.5743C36.1512 42.4232 34.9975 41.2695 34.9975 39.8463V5.15366C34.9975 3.73051 36.1512 2.57683 37.5743 2.57683H87.267C88.6901 2.57683 89.8438 3.73051 89.8438 5.15365V39.8463C89.8438 41.2695 88.6901 42.4232 87.267 42.4232H80.4207Z" stroke="black" stroke-width="5.15365"/>
<path d="M28.3147 65.1552L13.2571 78.6011V64.3262V63.682H12.6129H5.36398C2.87348 63.682 0.854534 61.663 0.854534 59.1725V24.4798C0.854534 21.9893 2.87348 19.9704 5.36398 19.9704H55.0567C57.5472 19.9704 59.5661 21.9893 59.5661 24.4798V59.1725C59.5661 61.663 57.5472 63.682 55.0567 63.682H32.1764C30.7519 63.682 29.3773 64.2064 28.3147 65.1552Z" fill="black" stroke="black" stroke-width="1.28841"/>
</svg>
