<svg width="204" height="91" viewBox="0 0 204 91" fill="none" xmlns="http://www.w3.org/2000/svg">
<path d="M127 28H125V30V36.6878L116.41 29.4197C115.327 28.503 113.954 28 112.535 28H99C97.8954 28 97 27.1046 97 26V4C97 2.89543 97.8954 2 99 2H131C132.105 2 133 2.89543 133 4V26C133 27.1046 132.105 28 131 28H127Z" stroke="black" stroke-width="4"/>
<path d="M88.5287 45.6435L78.7684 54.3591V45V44.5H78.2684H74C72.067 44.5 70.5 42.933 70.5 41V19C70.5 17.067 72.067 15.5 74 15.5H106C107.933 15.5 109.5 17.067 109.5 19V41C109.5 42.933 107.933 44.5 106 44.5H91.526C90.4204 44.5 89.3534 44.907 88.5287 45.6435Z" fill="black" stroke="black"/>
<path d="M14.5673 74.6378C14.5105 74.0649 14.2667 73.6198 13.8358 73.3026C13.4049 72.9853 12.8202 72.8267 12.0815 72.8267C11.5796 72.8267 11.1559 72.8977 10.8102 73.0398C10.4646 73.1771 10.1994 73.3688 10.0148 73.6151C9.83485 73.8613 9.74489 74.1406 9.74489 74.4531C9.73542 74.7135 9.78987 74.9408 9.90824 75.1349C10.0313 75.3291 10.1994 75.4972 10.4125 75.6392C10.6256 75.7765 10.8718 75.8973 11.1511 76.0014C11.4305 76.1009 11.7288 76.1861 12.046 76.2571L13.3528 76.5696C13.9873 76.7116 14.5697 76.901 15.1 77.1378C15.6303 77.3745 16.0896 77.6657 16.4778 78.0114C16.8661 78.357 17.1668 78.7642 17.3798 79.233C17.5976 79.7017 17.7089 80.2391 17.7136 80.8452C17.7089 81.7353 17.4816 82.5071 17.0318 83.1605C16.5867 83.8092 15.9428 84.3134 15.1 84.6733C14.2619 85.0284 13.251 85.206 12.0673 85.206C10.8931 85.206 9.87036 85.026 8.99915 84.6662C8.13267 84.3063 7.45559 83.7737 6.9679 83.0682C6.48494 82.358 6.23163 81.4796 6.20795 80.4332H9.18381C9.21695 80.9209 9.35663 81.3281 9.60284 81.6548C9.85379 81.9768 10.1876 82.2206 10.6043 82.3864C11.0257 82.5473 11.5015 82.6278 12.0318 82.6278C12.5526 82.6278 13.0048 82.5521 13.3884 82.4006C13.7766 82.2491 14.0773 82.0384 14.2903 81.7685C14.5034 81.4986 14.6099 81.1884 14.6099 80.8381C14.6099 80.5114 14.5129 80.2367 14.3187 80.0142C14.1294 79.7917 13.85 79.6023 13.4807 79.446C13.1161 79.2898 12.6687 79.1477 12.1384 79.0199L10.5545 78.6222C9.32822 78.3239 8.35994 77.8575 7.64971 77.223C6.93949 76.5885 6.58674 75.7339 6.59148 74.6591C6.58674 73.7784 6.82112 73.009 7.2946 72.3509C7.77282 71.6927 8.4286 71.179 9.26193 70.8097C10.0953 70.4403 11.0422 70.2557 12.1028 70.2557C13.1824 70.2557 14.1246 70.4403 14.9295 70.8097C15.7392 71.179 16.3689 71.6927 16.8187 72.3509C17.2686 73.009 17.5006 73.7713 17.5148 74.6378H14.5673ZM35.5486 77.7273C35.5486 79.3134 35.248 80.6629 34.6467 81.7756C34.0501 82.8883 33.2357 83.7382 32.2035 84.3253C31.176 84.9077 30.0207 85.1989 28.7376 85.1989C27.445 85.1989 26.2849 84.9053 25.2575 84.3182C24.23 83.7311 23.418 82.8812 22.8214 81.7685C22.2248 80.6558 21.9265 79.3087 21.9265 77.7273C21.9265 76.1411 22.2248 74.7917 22.8214 73.679C23.418 72.5663 24.23 71.7187 25.2575 71.1364C26.2849 70.5492 27.445 70.2557 28.7376 70.2557C30.0207 70.2557 31.176 70.5492 32.2035 71.1364C33.2357 71.7187 34.0501 72.5663 34.6467 73.679C35.248 74.7917 35.5486 76.1411 35.5486 77.7273ZM32.4308 77.7273C32.4308 76.6998 32.2769 75.8333 31.9691 75.1278C31.6661 74.4223 31.2376 73.8873 30.6836 73.5227C30.1296 73.1581 29.4809 72.9759 28.7376 72.9759C27.9942 72.9759 27.3455 73.1581 26.7915 73.5227C26.2376 73.8873 25.8067 74.4223 25.4989 75.1278C25.1959 75.8333 25.0444 76.6998 25.0444 77.7273C25.0444 78.7547 25.1959 79.6212 25.4989 80.3267C25.8067 81.0322 26.2376 81.5672 26.7915 81.9318C27.3455 82.2964 27.9942 82.4787 28.7376 82.4787C29.4809 82.4787 30.1296 82.2964 30.6836 81.9318C31.2376 81.5672 31.6661 81.0322 31.9691 80.3267C32.2769 79.6212 32.4308 78.7547 32.4308 77.7273ZM49.2111 70.4545H52.2864V79.9006C52.2864 80.9612 52.033 81.8892 51.5264 82.6847C51.0245 83.4801 50.3214 84.1004 49.417 84.5455C48.5127 84.9858 47.4592 85.206 46.2565 85.206C45.0491 85.206 43.9933 84.9858 43.0889 84.5455C42.1846 84.1004 41.4814 83.4801 40.9795 82.6847C40.4776 81.8892 40.2267 80.9612 40.2267 79.9006V70.4545H43.302V79.6378C43.302 80.1918 43.4227 80.6842 43.6642 81.1151C43.9104 81.5459 44.2561 81.8845 44.7011 82.1307C45.1462 82.3769 45.6647 82.5 46.2565 82.5C46.8531 82.5 47.3716 82.3769 47.8119 82.1307C48.257 81.8845 48.6003 81.5459 48.8418 81.1151C49.088 80.6842 49.2111 80.1918 49.2111 79.6378V70.4545ZM69.3827 70.4545V85H66.7265L60.3984 75.8452H60.2918V85H57.2165V70.4545H59.9154L66.1938 79.6023H66.3217V70.4545H69.3827ZM79.4798 85H74.3236V70.4545H79.5224C80.9855 70.4545 82.245 70.7457 83.3008 71.3281C84.3567 71.9058 85.1687 72.7367 85.7369 73.821C86.3098 74.9053 86.5963 76.2027 86.5963 77.7131C86.5963 79.2282 86.3098 80.5303 85.7369 81.6193C85.1687 82.7083 84.352 83.544 83.2866 84.1264C82.226 84.7088 80.9571 85 79.4798 85ZM77.3989 82.3651H79.352C80.2611 82.3651 81.0258 82.2041 81.646 81.8821C82.271 81.5554 82.7398 81.0511 83.0523 80.3693C83.3695 79.6828 83.5281 78.7973 83.5281 77.7131C83.5281 76.6383 83.3695 75.7599 83.0523 75.0781C82.7398 74.3963 82.2734 73.8944 81.6531 73.5724C81.0329 73.2505 80.2682 73.0895 79.3591 73.0895H77.3989V82.3651ZM98.3033 85V70.4545H108.104V72.9901H101.379V76.456H107.6V78.9915H101.379V82.4645H108.133V85H98.3033ZM125.116 70.4545V85H122.459L116.131 75.8452H116.025V85H112.949V70.4545H115.648L121.927 79.6023H122.054V70.4545H125.116ZM139.701 75.1562C139.602 74.8106 139.462 74.5052 139.282 74.2401C139.102 73.9702 138.882 73.7429 138.622 73.5582C138.366 73.3688 138.072 73.2244 137.741 73.125C137.414 73.0256 137.052 72.9759 136.654 72.9759C135.911 72.9759 135.258 73.1605 134.694 73.5298C134.135 73.8991 133.7 74.4366 133.387 75.142C133.075 75.8428 132.919 76.6998 132.919 77.7131C132.919 78.7263 133.072 79.5881 133.38 80.2983C133.688 81.0085 134.124 81.5507 134.687 81.9247C135.251 82.294 135.916 82.4787 136.683 82.4787C137.379 82.4787 137.973 82.3556 138.465 82.1094C138.963 81.8584 139.341 81.5057 139.602 81.0511C139.867 80.5966 140 80.0592 140 79.4389L140.625 79.5312H136.875V77.2159H142.961V79.0483C142.961 80.3267 142.691 81.4252 142.152 82.3438C141.612 83.2576 140.868 83.9631 139.921 84.4602C138.974 84.9527 137.89 85.1989 136.669 85.1989C135.305 85.1989 134.107 84.8982 133.075 84.2969C132.043 83.6908 131.238 82.8314 130.66 81.7188C130.087 80.6013 129.801 79.2756 129.801 77.7415C129.801 76.5625 129.971 75.5114 130.312 74.5881C130.658 73.66 131.141 72.8741 131.761 72.2301C132.381 71.5862 133.103 71.0961 133.927 70.7599C134.751 70.4238 135.644 70.2557 136.605 70.2557C137.429 70.2557 138.196 70.3764 138.906 70.6179C139.616 70.8546 140.246 71.1908 140.795 71.6264C141.349 72.062 141.801 72.5805 142.152 73.1818C142.502 73.7784 142.727 74.4366 142.826 75.1562H139.701ZM147.671 85V70.4545H150.747V82.4645H156.982V85H147.671ZM164.494 70.4545V85H161.419V70.4545H164.494ZM177.315 74.6378C177.258 74.0649 177.014 73.6198 176.583 73.3026C176.153 72.9853 175.568 72.8267 174.829 72.8267C174.327 72.8267 173.904 72.8977 173.558 73.0398C173.212 73.1771 172.947 73.3688 172.762 73.6151C172.583 73.8613 172.493 74.1406 172.493 74.4531C172.483 74.7135 172.538 74.9408 172.656 75.1349C172.779 75.3291 172.947 75.4972 173.16 75.6392C173.373 75.7765 173.619 75.8973 173.899 76.0014C174.178 76.1009 174.476 76.1861 174.794 76.2571L176.1 76.5696C176.735 76.7116 177.317 76.901 177.848 77.1378C178.378 77.3745 178.837 77.6657 179.225 78.0114C179.614 78.357 179.914 78.7642 180.127 79.233C180.345 79.7017 180.457 80.2391 180.461 80.8452C180.457 81.7353 180.229 82.5071 179.779 83.1605C179.334 83.8092 178.69 84.3134 177.848 84.6733C177.01 85.0284 175.999 85.206 174.815 85.206C173.641 85.206 172.618 85.026 171.747 84.6662C170.88 84.3063 170.203 83.7737 169.716 83.0682C169.233 82.358 168.979 81.4796 168.956 80.4332H171.931C171.965 80.9209 172.104 81.3281 172.35 81.6548C172.601 81.9768 172.935 82.2206 173.352 82.3864C173.773 82.5473 174.249 82.6278 174.779 82.6278C175.3 82.6278 175.752 82.5521 176.136 82.4006C176.524 82.2491 176.825 82.0384 177.038 81.7685C177.251 81.4986 177.358 81.1884 177.358 80.8381C177.358 80.5114 177.261 80.2367 177.066 80.0142C176.877 79.7917 176.598 79.6023 176.228 79.446C175.864 79.2898 175.416 79.1477 174.886 79.0199L173.302 78.6222C172.076 78.3239 171.108 77.8575 170.397 77.223C169.687 76.5885 169.334 75.7339 169.339 74.6591C169.334 73.7784 169.569 73.009 170.042 72.3509C170.52 71.6927 171.176 71.179 172.01 70.8097C172.843 70.4403 173.79 70.2557 174.85 70.2557C175.93 70.2557 176.872 70.4403 177.677 70.8097C178.487 71.179 179.117 71.6927 179.566 72.3509C180.016 73.009 180.248 73.7713 180.262 74.6378H177.315ZM184.93 85V70.4545H188.005V76.456H194.248V70.4545H197.316V85H194.248V78.9915H188.005V85H184.93Z" fill="black"/>
</svg>
