<svg width="93" height="81" viewBox="0 0 93 81" fill="none" xmlns="http://www.w3.org/2000/svg">
<path d="M80.2103 42.4232H77.6335V45V55.9441L63.816 44.2523C62.4202 43.0713 60.6509 42.4232 58.8225 42.4232H37.364C35.9408 42.4232 34.7872 41.2695 34.7872 39.8463V5.15366C34.7872 3.73051 35.9408 2.57683 37.364 2.57683H87.0567C88.4798 2.57683 89.6335 3.73051 89.6335 5.15365V39.8463C89.6335 41.2695 88.4798 42.4232 87.0567 42.4232H80.2103Z" stroke="#DBAA6F" stroke-width="5.15365"/>
<path d="M28.1044 65.1552L13.0468 78.6011V64.3262V63.682H12.4026H5.15365C2.66315 63.682 0.644207 61.663 0.644207 59.1725V24.4798C0.644207 21.9893 2.66316 19.9704 5.15365 19.9704H54.8463C57.3368 19.9704 59.3558 21.9893 59.3558 24.4798V59.1725C59.3558 61.663 57.3368 63.682 54.8463 63.682H31.9661C30.5416 63.682 29.1669 64.2064 28.1044 65.1552Z" fill="#31928F" stroke="#31928F" stroke-width="1.28841"/>
</svg>
