<svg width="93" height="81" viewBox="0 0 93 81" fill="none" xmlns="http://www.w3.org/2000/svg">
<path d="M80.631 42.4232H78.0542V45V55.9441L64.2366 44.2523C62.8408 43.0713 61.0716 42.4232 59.2432 42.4232H37.7846C36.3615 42.4232 35.2078 41.2695 35.2078 39.8463V5.15366C35.2078 3.73051 36.3615 2.57683 37.7846 2.57683H87.4773C88.9005 2.57683 90.0542 3.73051 90.0542 5.15365V39.8463C90.0542 41.2695 88.9005 42.4232 87.4773 42.4232H80.631Z" stroke="#FDFDFD" stroke-width="5.15365"/>
<path d="M28.525 65.1552L13.4675 78.6011V64.3262V63.682H12.8233H5.57431C3.08381 63.682 1.06486 61.663 1.06486 59.1725V24.4798C1.06486 21.9893 3.08381 19.9704 5.57431 19.9704H55.267C57.7575 19.9704 59.7764 21.9893 59.7764 24.4798V59.1725C59.7764 61.663 57.7575 63.682 55.267 63.682H32.3868C30.9623 63.682 29.5876 64.2064 28.525 65.1552Z" fill="#FDFDFD" stroke="#FDFDFD" stroke-width="1.28841"/>
</svg>
